<svg width="24" height="25" viewBox="0 0 24 25" fill="none" xmlns="http://www.w3.org/2000/svg">
<path d="M20.2969 16.2059C20.1924 16.3108 20.0682 16.394 19.9314 16.4508C19.7947 16.5076 19.6481 16.5368 19.5 16.5368C19.3519 16.5368 19.2053 16.5076 19.0686 16.4508C18.9318 16.394 18.8076 16.3108 18.7031 16.2059L12.0009 9.50375L5.29687 16.2059C5.08553 16.4173 4.79888 16.536 4.5 16.536C4.20111 16.536 3.91447 16.4173 3.70312 16.2059C3.49178 15.9946 3.37305 15.708 3.37305 15.4091C3.37305 15.1102 3.49178 14.8235 3.70312 14.6122L11.2031 7.11219C11.3076 7.00731 11.4318 6.92409 11.5686 6.86731C11.7053 6.81053 11.8519 6.7813 12 6.7813C12.1481 6.7813 12.2947 6.81053 12.4314 6.86731C12.5682 6.92409 12.6924 7.00731 12.7969 7.11219L20.2969 14.6122C20.4018 14.7167 20.485 14.8409 20.5418 14.9776C20.5985 15.1144 20.6278 15.261 20.6278 15.4091C20.6278 15.5571 20.5985 15.7037 20.5418 15.8405C20.485 15.9772 20.4018 16.1014 20.2969 16.2059Z" fill="#15AA7A"/>
</svg>
